<svg xmlns="http://www.w3.org/2000/svg" viewBox="0 0 200 215" font-family="Arial, Helvetica, sans-serif">
  <rect width="200" height="215" fill="#ffffff"/>
  <!-- anneau extérieur de points -->
  <g>
    <circle cx="155" cy="80" r="6" fill="#2E6DA4"/>
    <circle cx="151" cy="101" r="5" fill="#3AA0D8"/>
    <circle cx="139" cy="119" r="6" fill="#2E6DA4"/>
    <circle cx="121" cy="131" r="5" fill="#1B3A6B"/>
    <circle cx="100" cy="135" r="7" fill="#3AA0D8"/>
    <circle cx="79" cy="131" r="5" fill="#2E6DA4"/>
    <circle cx="61" cy="119" r="6" fill="#1B3A6B"/>
    <circle cx="49" cy="101" r="5" fill="#3AA0D8"/>
    <circle cx="45" cy="80" r="6" fill="#2E6DA4"/>
    <circle cx="49" cy="59" r="5" fill="#1B3A6B"/>
    <circle cx="61" cy="41" r="6" fill="#3AA0D8"/>
    <circle cx="79" cy="29" r="5" fill="#2E6DA4"/>
    <circle cx="100" cy="25" r="7" fill="#1B3A6B"/>
    <circle cx="121" cy="29" r="5" fill="#3AA0D8"/>
    <circle cx="139" cy="41" r="6" fill="#2E6DA4"/>
    <circle cx="151" cy="59" r="5" fill="#1B3A6B"/>
  </g>
  <!-- anneau intérieur -->
  <g>
    <circle cx="135" cy="80" r="4" fill="#5FB4E0"/>
    <circle cx="125" cy="105" r="4" fill="#2E6DA4"/>
    <circle cx="100" cy="115" r="5" fill="#1B3A6B"/>
    <circle cx="75" cy="105" r="4" fill="#5FB4E0"/>
    <circle cx="65" cy="80" r="4" fill="#2E6DA4"/>
    <circle cx="75" cy="55" r="4" fill="#1B3A6B"/>
    <circle cx="100" cy="45" r="5" fill="#5FB4E0"/>
    <circle cx="125" cy="55" r="4" fill="#2E6DA4"/>
  </g>
  <text x="100" y="195" text-anchor="middle" font-size="36" font-weight="800" letter-spacing="1">
    <tspan fill="#1B3A6B">POL</tspan><tspan fill="#3AA0D8"> IT</tspan>
  </text>
</svg>
